<svg xmlns="http://www.w3.org/2000/svg" width="600" height="88.8" viewBox="0 0 600 88.8"><g fill="#D91B77"><path fill-rule="evenodd" clip-rule="evenodd" d="M0 86.4v-28.8h28.8v-28.8h28.8v-28.8h28.8v86.4zm93.6-86.4c47.718 0 86.4 38.683 86.4 86.399h-86.4v-86.399z"/><path d="M580.505 50.198c-4.061 0-9.504 3.283-11.405 6.652v29.549h-6.479v-41.731h6.479v6.653c3.37-4.319 8.208-7.603 13.911-7.603v6.653c-.779-.087-1.556-.173-2.506-.173zm-28.857 36.201h-31.794v-5.096l22.982-30.932h-22.982v-5.703h31.449v4.926l-23.156 31.103h23.501zm-49.247-41.731h6.479v41.731h-6.479zm3.284-5.961c-2.42 0-4.407-1.901-4.407-4.32 0-2.419 1.987-4.407 4.407-4.407 2.419 0 4.319 1.988 4.319 4.407s-1.9 4.32-4.319 4.32zm-22.722 47.692v-27.301c0-7.431-3.803-9.678-9.418-9.678-5.098 0-9.85 3.111-12.355 6.48v30.499h-6.48v-41.731h6.48v6.048c2.938-3.542 8.64-7.084 14.947-7.084 8.64 0 13.219 4.407 13.219 13.479v29.289h-6.393zm-38.88-36.201c-4.061 0-9.504 3.283-11.404 6.652v29.549h-6.479v-41.731h6.479v6.653c3.369-4.319 8.208-7.603 13.911-7.603v6.653c-.778-.087-1.556-.173-2.507-.173zm-186.016 36.201v-48.469l-19.526 48.469h-2.937l-19.613-48.469v48.469h-7.172v-57.628h10.282l17.971 44.41 17.885-44.41h10.282v57.628zm157.679-20.389c0-12.528-7.431-22.378-20.046-22.378-11.923 0-20.562 9.763-20.562 21.86 0 13.047 8.898 21.945 21.341 21.945 6.739 0 12.355-2.333 16.589-6.479l-3.111-4.234c-3.369 3.456-8.121 5.356-12.96 5.356-8.985 0-14.429-6.565-14.946-14.428h33.696v-1.642zm-33.783-3.198c.346-6.307 4.752-13.824 13.651-13.824 9.504 0 13.651 7.69 13.737 13.824h-27.388zm-23.846-34.041v22.205c-3.37-4.579-8.468-7.344-14.084-7.344-10.887 0-18.575 8.554-18.575 21.946 0 13.565 7.688 21.859 18.575 21.859 5.876 0 10.974-3.023 14.084-7.258v6.221h6.479v-57.629h-6.479zm0 46.224c-2.247 3.628-7.344 6.652-12.442 6.652-8.467 0-13.478-6.825-13.478-16.07s5.011-16.157 13.478-16.157c5.099 0 10.195 3.111 12.442 6.739v18.836zm-61.43-31.364c-12.701 0-20.649 9.763-20.649 21.86 0 12.096 7.948 21.945 20.649 21.945s20.65-9.85 20.65-21.945c0-12.096-7.949-21.86-20.65-21.86zm0 38.016c-8.899 0-13.824-7.603-13.824-16.156 0-8.468 4.925-16.071 13.824-16.071 8.9 0 13.824 7.604 13.824 16.071 0 8.554-4.924 16.156-13.824 16.156z"/></g></svg>